
<svg aria-hidden="true" style="position: absolute; width: 0; height: 0; overflow: hidden;" version="1.1" xmlns="http://www.w3.org/2000/svg" xmlns:xlink="http://www.w3.org/1999/xlink">
<defs>
<symbol id="user-icon" viewBox="0 0 28 32">
<path  fill="#F5F4FA" d="M19.962 20.038l-5.963 5.962-5.963-5.962c-4.469 0.194-8.037 3.85-8.037 8.363v0.6c0 1.656 1.344 3 3 3h22c1.656 0 3-1.344 3-3v-0.6c0-4.512-3.569-8.169-8.038-8.363zM0.85 4.987l0.4 0.094v3.65c-0.438 0.262-0.75 0.719-0.75 1.269 0 0.525 0.287 0.963 0.694 1.231l-0.975 3.894c-0.106 0.431 0.131 0.875 0.475 0.875h2.612c0.344 0 0.581-0.444 0.475-0.875l-0.975-3.894c0.406-0.269 0.694-0.706 0.694-1.231 0-0.55-0.313-1.006-0.75-1.269v-3.287l4.125 0.994c-0.537 1.075-0.875 2.275-0.875 3.563 0 4.419 3.581 8 8 8s8-3.581 8-8c0-1.287-0.331-2.487-0.875-3.563l6.019-1.45c1.137-0.275 1.137-1.694 0-1.969l-11.9-2.875c-0.813-0.194-1.669-0.194-2.481 0l-11.912 2.869c-1.131 0.275-1.131 1.7 0 1.975z"></path>
</symbol>
<symbol id="home-icon" viewBox="0 0 36 32">
<path fill="#F5F4FA" d="M17.523 9.266l-11.523 9.491v10.243c0 0.552 0.448 1 1 1v0l7.004-0.018c0.55-0.003 0.995-0.449 0.995-1 0 0 0 0 0 0v0-5.982c0-0.552 0.448-1 1-1v0h4c0.552 0 1 0.448 1 1v0 5.977c0 0.001 0 0.002 0 0.003 0 0.552 0.448 1 1 1 0 0 0 0 0 0v0l7.001 0.019c0.552 0 1-0.448 1-1v0-10.25l-11.521-9.484c-0.13-0.105-0.296-0.169-0.478-0.169s-0.349 0.064-0.48 0.17l0.001-0.001zM35.725 15.717l-5.225-4.307v-8.657c0-0.414-0.336-0.75-0.75-0.75v0h-3.5c-0.414 0-0.75 0.336-0.75 0.75v0 4.538l-5.596-4.604c-0.514-0.425-1.18-0.683-1.906-0.683s-1.392 0.258-1.911 0.688l0.005-0.004-15.821 13.029c-0.167 0.139-0.272 0.346-0.272 0.578 0 0.182 0.065 0.349 0.173 0.479l-0.001-0.001 1.594 1.938c0.139 0.168 0.347 0.274 0.579 0.274 0.182 0 0.349-0.065 0.479-0.173l-0.001 0.001 14.701-12.109c0.13-0.105 0.296-0.169 0.478-0.169s0.349 0.064 0.48 0.17l-0.001-0.001 14.702 12.109c0.129 0.107 0.296 0.172 0.478 0.172 0.232 0 0.44-0.105 0.577-0.271l0.001-0.001 1.594-1.938c0.106-0.128 0.171-0.295 0.171-0.476 0-0.234-0.107-0.443-0.276-0.581l-0.001-0.001z"></path>
</symbol>
<symbol id="chalkboard-icon" viewBox="0 0 40 32">
<path fill="#F5F4FA" d="M13 22c-0.149 0-0.299 0.022-0.441 0.068-0.81 0.263-1.662 0.432-2.559 0.432s-1.749-0.169-2.559-0.432c-0.143-0.046-0.291-0.068-0.441-0.068-3.879 0-7.021 3.155-7 7.039 0.009 1.641 1.358 2.961 3 2.961h14c1.642 0 2.991-1.32 3-2.961 0.021-3.884-3.121-7.039-7-7.039zM10 20c3.314 0 6-2.686 6-6s-2.686-6-6-6-6 2.686-6 6 2.686 6 6 6zM37 0h-24c-1.654 0-3 1.391-3 3.099v2.901c1.464 0 2.819 0.424 4 1.112v-3.112h22v18h-4v-4h-8v4h-4.765c1.194 1.043 2.070 2.421 2.481 4h15.284c1.654 0 3-1.391 3-3.099v-19.801c0-1.709-1.346-3.099-3-3.099z"></path>
</symbol>
<symbol id="address-card-icon" viewBox="0 0 36 32">
<path fill="#F5F4FA" d="M33 2h-30c-1.656 0-3 1.344-3 3v22c0 1.656 1.344 3 3 3h30c1.656 0 3-1.344 3-3v-22c0-1.656-1.344-3-3-3zM33 27h-30v-22h30v22zM13 16c2.206 0 4-1.794 4-4s-1.794-4-4-4-4 1.794-4 4 1.794 4 4 4zM7.4 24h11.2c0.775 0 1.4-0.538 1.4-1.2v-1.2c0-1.988-1.881-3.6-4.2-3.6-0.675 0-1.169 0.5-2.8 0.5-1.681 0-2.088-0.5-2.8-0.5-2.319 0-4.2 1.613-4.2 3.6v1.2c0 0.663 0.625 1.2 1.4 1.2zM22.5 20h7c0.275 0 0.5-0.225 0.5-0.5v-1c0-0.275-0.225-0.5-0.5-0.5h-7c-0.275 0-0.5 0.225-0.5 0.5v1c0 0.275 0.225 0.5 0.5 0.5zM22.5 16h7c0.275 0 0.5-0.225 0.5-0.5v-1c0-0.275-0.225-0.5-0.5-0.5h-7c-0.275 0-0.5 0.225-0.5 0.5v1c0 0.275 0.225 0.5 0.5 0.5zM22.5 12h7c0.275 0 0.5-0.225 0.5-0.5v-1c0-0.275-0.225-0.5-0.5-0.5h-7c-0.275 0-0.5 0.225-0.5 0.5v1c0 0.275 0.225 0.5 0.5 0.5z"></path>
</symbol>
<symbol id="phone-icon" viewBox="0 0 32 32">
<path fill="#F5F4FA" d="M31.087 22.613l-7-3c-0.173-0.076-0.376-0.12-0.588-0.12-0.467 0-0.885 0.214-1.16 0.549l-0.002 0.003-3.1 3.788c-4.885-2.34-8.734-6.189-11.014-10.935l-0.060-0.139 3.787-3.1c0.338-0.277 0.552-0.694 0.552-1.161 0-0.213-0.044-0.415-0.125-0.599l0.004 0.010-3-7c-0.239-0.538-0.768-0.906-1.384-0.906-0.119 0-0.234 0.014-0.345 0.040l0.010-0.002-6.5 1.5c-0.671 0.159-1.163 0.753-1.163 1.462 0 0 0 0 0 0v-0c0 16.031 12.994 29 29 29 0 0 0.001 0 0.001 0 0.709 0 1.303-0.492 1.459-1.152l0.002-0.010 1.5-6.5c0.023-0.1 0.037-0.215 0.037-0.333 0-0.619-0.371-1.152-0.903-1.388l-0.010-0.004z"></path>
</symbol>
</defs>
</svg>

